<svg width="614" height="615" viewBox="0 0 614 615" fill="none" xmlns="http://www.w3.org/2000/svg">
<path d="M306.974 614.051C476.511 614.051 613.947 476.591 613.947 307.025C613.947 137.46 476.511 0 306.974 0C137.437 0 0 137.46 0 307.025C0 476.591 137.437 614.051 306.974 614.051Z" fill="#000001"/>
<path d="M328.389 371.222C328.389 371.222 349.775 369.516 349.775 392.612L371.162 371.222C371.162 371.222 349.775 373.234 349.775 349.832L328.389 371.222Z" fill="white"/>
<path d="M135.832 280.109V205.829C135.832 202.773 138.302 200.303 141.357 200.303H173.08C176.136 200.303 178.605 202.773 178.605 205.829V279.651C178.605 282.961 175.932 285.635 172.622 285.635H141.357C138.302 285.635 135.832 283.165 135.832 280.109Z" fill="white"/>
<path d="M264.178 242.753V200.304H306.951V243.084H264.509C264.33 243.084 264.178 242.931 264.178 242.753Z" fill="white"/>
<path d="M221.379 242.728V205.116C221.379 202.443 223.543 200.278 226.216 200.278H264.152V243.059H221.71C221.532 243.059 221.379 242.906 221.379 242.728Z" fill="white"/>
<path d="M349.748 206.312V237.405C349.748 240.537 347.202 243.083 344.07 243.083H306.975V200.303H343.739C347.049 200.303 349.748 203.002 349.748 206.312Z" fill="white"/>
<path d="M135.832 371.222V414.002H178.605V371.222H135.832Z" fill="white"/>
<path d="M391.986 236.948V205.652C391.986 202.545 394.507 200.05 397.588 200.05H414.671C425.772 200.05 434.785 209.064 434.785 220.167V242.855H397.893C394.634 242.855 392.012 240.207 392.012 236.973L391.986 236.948Z" fill="white"/>
<path d="M391.986 414.002V371.222H434.76V393.274C434.76 404.733 425.467 414.027 414.009 414.027H391.961L391.986 414.002Z" fill="white"/>
<path d="M349.188 279.727V248.737C349.188 245.477 351.835 242.829 355.094 242.829H386.079C389.338 242.829 391.986 245.477 391.986 248.737V279.269C391.986 282.783 389.135 285.635 385.621 285.635H355.094C351.835 285.635 349.188 282.986 349.188 279.727Z" fill="white"/>
<path d="M221.377 280.084V242.829H264.15V285.151C264.15 285.406 263.946 285.635 263.666 285.635H226.902C223.847 285.635 221.352 283.165 221.352 280.084H221.377Z" fill="white"/>
<path d="M264.178 413.67V370.89H301.273C304.405 370.89 306.951 373.436 306.951 376.568V407.788C306.951 411.047 304.303 413.67 301.07 413.67H264.178Z" fill="white"/>
<path d="M227.413 370.967H264.177V413.747H227.897C224.307 413.747 221.404 410.844 221.404 407.254V376.976C221.404 373.666 224.103 370.967 227.413 370.967Z" fill="white"/>
<path d="M349.773 407.025V372.189C349.773 371.655 350.206 371.196 350.766 371.196H391.579C392.114 371.196 392.572 371.629 392.572 372.189V413.009C392.572 413.544 392.139 414.002 391.579 414.002H356.75C352.905 414.002 349.773 410.87 349.773 407.025Z" fill="white"/>
<path d="M413.373 200.049V242.829C448.814 242.829 477.558 271.579 477.558 307.025C477.558 342.472 448.814 371.221 413.373 371.221V414.002C472.441 414.002 520.331 366.103 520.331 307.025C520.331 247.948 472.441 200.049 413.373 200.049Z" fill="white"/>
<path d="M135.832 371.093V334.45C135.832 331.114 138.556 328.389 141.892 328.389H172.037C175.652 328.389 178.605 331.343 178.605 334.959V371.093C178.605 371.093 178.554 371.195 178.503 371.195H135.908C135.908 371.195 135.807 371.144 135.807 371.093H135.832Z" fill="white"/>
<path d="M178.605 291.161V322.89C178.605 325.942 181.079 328.416 184.13 328.416H215.854C218.905 328.416 221.379 325.942 221.379 322.89V291.161C221.379 288.11 218.905 285.636 215.854 285.636H184.13C181.079 285.636 178.605 288.11 178.605 291.161Z" fill="white"/>
<path d="M178.605 307.025C178.605 307.025 180.311 328.416 157.219 328.416L178.605 349.806C178.605 349.806 176.594 328.416 199.992 328.416L178.605 307.025Z" fill="white"/>
<path d="M264.201 221.693C264.201 221.693 265.907 243.084 242.814 243.084L264.201 264.474C264.201 264.474 262.19 243.084 285.588 243.084L264.201 221.693Z" fill="white"/>
<path d="M306.976 349.805C306.976 349.805 308.682 371.195 285.59 371.195L306.976 392.585C306.976 392.585 304.965 371.195 328.363 371.195L306.976 349.805Z" fill="white"/>
<path d="M391.988 221.693C391.988 221.693 393.694 243.084 370.602 243.084L391.988 264.474C391.988 264.474 389.977 243.084 413.375 243.084L391.988 221.693Z" fill="white"/>
<path d="M349.775 221.693C349.775 221.693 348.069 243.084 371.162 243.084L349.775 264.474C349.775 264.474 351.787 243.084 328.389 243.084L349.775 221.693Z" fill="white"/>
<path d="M264.178 264.244C264.178 264.244 262.472 285.634 285.564 285.634L264.178 307.024C264.178 307.024 266.189 285.634 242.791 285.634L264.178 264.244Z" fill="white"/>
<path d="M178.605 264.244C178.605 264.244 176.899 285.634 199.992 285.634L178.605 307.024C178.605 307.024 180.617 285.634 157.219 285.634L178.605 264.244Z" fill="white"/>
<path d="M306.949 363.149V345.145C306.949 335.902 314.434 328.415 323.677 328.415H349.722V371.195H314.995C310.539 371.195 306.949 367.579 306.949 363.149Z" fill="white"/>
<path d="M264.178 291.365V322.687C264.178 325.851 266.742 328.416 269.906 328.416H301.222C304.386 328.416 306.951 325.851 306.951 322.687V291.365C306.951 288.201 304.386 285.636 301.222 285.636H269.906C266.742 285.636 264.178 288.201 264.178 291.365Z" fill="white"/>
<path d="M306.949 307.025C306.949 307.025 305.243 328.416 328.336 328.416L306.949 349.806C306.949 349.806 308.96 328.416 285.562 328.416L306.949 307.025Z" fill="white"/>
<path d="M349.773 371.195V328.415H392.037C392.317 328.415 392.547 328.644 392.547 328.924V371.195H349.773Z" fill="#0090FF"/>
<path d="M392.572 291.594V322.457C392.572 325.748 395.24 328.416 398.53 328.416H429.388C432.678 328.416 435.345 325.748 435.345 322.457V291.594C435.345 288.303 432.678 285.636 429.388 285.636H398.53C395.24 285.636 392.572 288.303 392.572 291.594Z" fill="#0090FF"/>
<path d="M392.547 307.025C392.547 307.025 394.253 328.416 371.16 328.416L392.547 349.806C392.547 349.806 390.535 328.416 413.933 328.416L392.547 307.025Z" fill="#0090FF"/>
<path d="M135.807 243.084V205.88C135.807 202.799 138.302 200.278 141.408 200.278H173.004C176.085 200.278 178.605 202.774 178.605 205.88V243.084H135.832H135.807Z" fill="#D83273"/>
</svg>
