<svg width="432" height="240" viewBox="0 0 432 240" fill="none" xmlns="http://www.w3.org/2000/svg">
<g clip-path="url(#clip0_6030_454)">
<path d="M48 48L48.0146 72C48.0146 84 60 96 72.0063 96H90C93 96 96 99 96 102V138C96 142 93 144 90 144H72C60 144 48 156 48 168V240H0.0282416L0 192.44H0.0282416L0 150C0 147 3 144 6 144H24C39 144 48.0146 135 48.0146 120C48.0146 105 39 96 24 96C9 96 6 96 6 96C3 96 0 93 0 90V48H48Z" fill="white"/>
<path fill-rule="evenodd" clip-rule="evenodd" d="M315 0C380.151 0.00128377 432 55.5811 432 120C432 185.709 378 240 315 240C292 240 249 240 246 240C243 240 240 237 240 234V210C240 202 230 192 222 192C214 192 218 192 216 192C214 192 218 192 210 192C202 192 192 202 192 210L192 234C192 237 189 240 186 240H102C99 240 96.0002 238 96.0002 234V200C96.0002 196 100.008 192 104.016 192L144.272 192.282V192.196L174 192C183 192 192 183 192 174L192 162C192 153 183 144 174 144C166.5 144 157.06 144 150 144C147 144 144 141 144 138C144 138 144 132 144 120C144 108 138 96 120 96C102 96 105 96 102 96C99 96 95.998 93 96 90C96.002 87 96 31.3613 96 6C96 3 99 0 102 0H234C237 0 240 3 240 6C240 9 240 24 240 30C240 39 249 48 258 48H270C279 48 288 39 288 30V6C288 3 291 0 294 0H315ZM306 48C298 48 288 58 288 66V90C288 93 285 96 282 96H246.051C243 96 240.094 93 240.094 90V66C240.094 57 231 48 222 48H162C153 48 144 57 144 66V78C144 87 153 96 162 96C171 96 183 96 186 96C189 96 192 99 192 102C192 105 192 117 192 126C192 135 201 144 210 144C219 144 240 144 240 144V192H315C354.946 192 384 159.877 384 120C384 80.7976 354.317 48 315 48H306Z" fill="white"/>
<path d="M330 96C333 96 336 99 336 102V138C336 141.076 333 144 330 144H312C294 144 288 156 288 162V192H240V144H270C279 144 288 132 288 120V102C288 99 291 96 294 96H330Z" fill="#0090FF"/>
<path d="M0 48L0 5.81818C0 2.90909 3 0 6 0H42C45 0 48 2.90909 48 5.81818V48H0Z" fill="#D83273"/>
</g>
<defs>
<clipPath id="clip0_6030_454">
<rect width="432" height="240" fill="white"/>
</clipPath>
</defs>
</svg>
