<svg width="702" height="702" viewBox="0 0 702 702" fill="none" xmlns="http://www.w3.org/2000/svg">
<g clip-path="url(#clip0_13_1425)">
<path d="M183 279L183.015 303C183.015 315 195 327 207.006 327H225C228 327 231 330 231 333V369C231 373 228 375 225 375H207C195 375 183 387 183 399V471H135.028L135 423.44H135.028L135 381C135 378 138 375 141 375H159C174 375 183.015 366 183.015 351C183.015 336 174 327 159 327C144 327 141 327 141 327C138 327 135 324 135 321V279H183Z" fill="white"/>
<path fill-rule="evenodd" clip-rule="evenodd" d="M450 231C515.151 231.001 567 286.581 567 351C567 416.709 513 471 450 471C427 471 384 471 381 471C378 471 375 468 375 465V441C375 433 365 423 357 423C349 423 353 423 351 423C349 423 353 423 345 423C337 423 327 433 327 441L327 465C327 468 324 471 321 471H237C234 471 231 469 231 465V431C231 427 235.008 423 239.016 423L279.272 423.282V423.196L309 423C318 423 327 414 327 405L327 393C327 384 318 375 309 375C301.5 375 292.06 375 285 375C282 375 279 372 279 369C279 369 279 363 279 351C279 339 273 327 255 327C237 327 240 327 237 327C234 327 230.998 324 231 321C231.002 318 231 262.361 231 237C231 234 234 231 237 231H369C372 231 375 234 375 237C375 240 375 255 375 261C375 270 384 279 393 279H405C414 279 423 270 423 261V237C423 234 426 231 429 231H450ZM441 279C433 279 423 289 423 297V321C423 324 420 327 417 327H381.051C378 327 375.094 324 375.094 321V297C375.094 288 366 279 357 279H297C288 279 279 288 279 297V309C279 318 288 327 297 327C306 327 318 327 321 327C324 327 327 330 327 333C327 336 327 348 327 357C327 366 336 375 345 375C354 375 375 375 375 375V423H450C489.946 423 519 390.877 519 351C519 311.798 489.317 279 450 279H441Z" fill="white"/>
<path d="M465 327C468 327 471 330 471 333V369C471 372.076 468 375 465 375H447C429 375 423 387 423 393V423H375V375H405C414 375 423 363 423 351V333C423 330 426 327 429 327H465Z" fill="#0090FF"/>
<path d="M135 279V236.818C135 233.909 138 231 141 231H177C180 231 183 233.909 183 236.818V279H135Z" fill="#D83273"/>
</g>
</svg>
