<svg width="216" height="362" viewBox="0 0 216 362" fill="none" xmlns="http://www.w3.org/2000/svg">
<g clip-path="url(#clip0_6057_303)">
<path fill-rule="evenodd" clip-rule="evenodd" d="M105.685 4.80598C105.012 7.49431 103.77 12.2717 102.925 15.4231C102.08 18.5746 96.9158 38.2922 91.449 59.24C85.9828 80.1878 77.3415 113.249 72.2473 132.711L62.9842 168.094L60.6859 168.68C41.7947 173.495 29.0817 179.968 6.91875 196.053C3.1131 198.815 0 201.434 0 201.873C0 202.902 16.1068 215.105 23.8275 219.926C33.1898 225.772 44.1808 230.761 53.8097 233.537C54.3348 233.689 53.5363 235.55 51.6051 238.677C47.8798 244.712 44.9732 252.164 43.8507 258.556C43.0285 263.24 43.2878 277.531 44.2915 282.874L44.7032 285.065L40.4075 285.077C32.6349 285.098 18.387 289.02 15.8294 291.843C14.7623 293.021 14.7346 293.597 15.5291 298.235C16.2594 302.497 16.5793 303.253 17.4825 302.842C18.0765 302.572 22.0482 301.155 26.3088 299.694C39.3113 295.235 48.467 296.057 52.7621 302.071C54.3038 304.23 54.3422 304.666 54.565 322.47C54.7155 334.508 54.5387 341.508 54.0425 343.162C52.6358 347.85 47.9216 349.992 39.1378 349.934C33.5833 349.898 26.6011 347.905 25.1438 345.94C24.6031 345.212 24.3 342.418 24.3 338.16C24.3 332.006 24.4222 331.395 25.9571 329.863C27.5157 328.306 28.0537 328.208 35.0696 328.208H42.525V322.478V316.748H33.4685C23.2619 316.748 20.1919 317.589 16.4599 321.408C13.043 324.904 12.15 328.906 12.15 340.725C12.15 346.798 12.4558 351.734 12.8911 352.689C13.7214 354.509 21.0188 358.389 27 360.191C32.1901 361.754 41.3255 362.258 46.953 361.291C56.4739 359.656 62.7656 355.172 65.3974 348.146C66.7312 344.585 66.825 343.042 66.825 324.598C66.825 302.941 66.5105 300.62 62.8357 295.155C61.7477 293.537 59.753 291.391 58.4044 290.387C57.0557 289.382 56.2417 288.382 56.5961 288.163C56.9498 287.944 64.3322 284.903 73.0013 281.404C81.6696 277.904 92.1038 273.641 96.1875 271.928C103.091 269.034 103.945 268.834 108.338 269.084C112.313 269.309 114.507 269.99 122.175 273.377C127.187 275.59 136.527 279.482 142.931 282.024C149.336 284.568 154.575 286.844 154.575 287.082C154.575 287.32 152.887 288.047 150.823 288.697C148.76 289.346 146.902 290.319 146.694 290.859C146.303 291.879 147.477 301.121 148.074 301.717C148.261 301.904 150.331 301.434 152.676 300.673C159.314 298.518 168.926 297.027 174.397 297.302C178.51 297.51 179.742 297.859 181.746 299.386C187.695 303.917 187.746 311.727 181.966 332.927C177.119 350.711 177.564 349.779 173.914 349.779H170.95L170.161 342.196C168.285 324.139 165.917 320.904 154.103 320.257C148.702 319.96 148.557 319.993 148.158 321.581C147.933 322.476 147.843 325.016 147.956 327.225L148.163 331.241L152.073 331.444C155.396 331.617 156.071 331.873 156.555 333.146C156.869 333.97 157.781 339.945 158.583 346.424C159.43 353.264 160.406 358.574 160.91 359.082C162.361 360.547 170.103 362.049 174.507 361.721C181.549 361.197 186.983 357.245 189.212 351.03C190.596 347.167 196.085 327.182 197.477 320.933C199.143 313.448 198.636 303.365 196.349 298.547C192.65 290.752 186.278 286.664 175.956 285.464C170.041 284.777 170.001 284.761 170.429 283.065C170.666 282.126 171.028 276.787 171.234 271.199C171.562 262.276 171.433 260.349 170.171 255.357C168.61 249.185 165.279 241.627 162.06 236.954L160.025 234L166.138 231.816C173.723 229.106 183.051 224.572 189.305 220.555C196.103 216.188 216.002 202.003 215.988 201.533C215.974 201.068 208.721 195.902 197.438 188.32C184.42 179.572 170.046 172.848 157.071 169.434C154.464 168.748 152.221 167.742 151.88 167.106C151.55 166.491 150.334 162.217 149.178 157.61C148.021 153.003 146.51 147.261 145.818 144.851C145.127 142.441 142.559 132.734 140.11 123.28C137.663 113.826 133.684 98.81 131.269 89.9118C128.854 81.0136 123.678 61.1443 119.767 45.7579C113.79 22.2458 109.796 6.85594 108.175 1.0984C107.563 -1.07491 106.919 -0.11566 105.685 4.80598ZM120.776 102.72C123.08 111.618 127.541 128.909 130.689 141.144C133.837 153.379 136.578 163.942 136.78 164.618C137.125 165.771 136.696 165.822 129.83 165.439C125.805 165.215 120.614 164.865 118.294 164.662L114.075 164.293L114.136 121.035C114.196 78.392 114.214 77.8399 115.392 82.1596C116.049 84.5695 118.472 93.8216 120.776 102.72ZM100.565 121.089C100.559 145.161 100.294 163.128 99.9351 163.693C99.4673 164.431 96.741 164.82 88.7699 165.284C82.9697 165.621 78.1151 165.788 77.9814 165.654C77.8477 165.521 79.3429 159.193 81.3031 151.592C83.2639 143.992 87.8168 126.246 91.4207 112.157C99.0232 82.4353 99.8264 79.4631 100.256 79.4631C100.432 79.4631 100.57 98.1945 100.565 121.089ZM100.575 186.646V194.735H66.4477C44.141 194.735 32.4628 194.505 32.7328 194.069C33.4415 192.923 38.6309 190.151 43.4768 188.33C58.8404 182.554 78.055 178.735 92.3063 178.622L100.575 178.557V186.646ZM140.559 180.203C149.12 181.614 158.782 184.142 165.256 186.663C171.661 189.158 180.321 193.586 180.459 194.439C180.618 195.411 116.165 195.628 114.996 194.659C114.315 194.095 114.075 191.867 114.075 186.128V178.36L124.031 178.74C129.508 178.948 136.945 179.607 140.559 180.203ZM80.269 209.129C71.006 216.935 66.3883 220.55 65.0153 221.072C62.8081 221.91 56.7607 220.434 48.274 216.985C42.4325 214.612 33.075 209.8 33.075 209.17C33.075 209.017 43.7569 208.891 56.8127 208.891C69.8679 208.891 80.4236 208.998 80.269 209.129ZM180.337 209.968C174.919 213.757 154.829 221.699 150.661 221.699C149.846 221.699 148.039 220.687 146.646 219.45C145.253 218.212 141.739 215.33 138.837 213.046L133.562 208.891H157.718C180.033 208.891 181.758 208.974 180.337 209.968ZM100.575 219.246V225.556L93.9938 225.249C90.3737 225.081 86.5046 224.725 85.3949 224.46C83.4422 223.993 83.6473 223.798 91.7311 218.456C96.3259 215.42 100.196 212.936 100.33 212.936C100.465 212.936 100.575 215.775 100.575 219.246ZM123.198 218.773C127.467 221.613 130.816 224.08 130.642 224.255C130.466 224.43 126.818 224.76 122.536 224.99L114.749 225.407L114.75 219.509C114.75 216.265 114.904 213.61 115.092 213.61C115.281 213.61 118.928 215.934 123.198 218.773ZM88.0875 238.22C94.3988 238.764 99.7906 239.213 100.069 239.217C101.004 239.234 100.658 254.497 99.7049 255.287C99.2263 255.684 89.7338 259.687 78.6112 264.182C67.4878 268.678 57.9596 272.536 57.4364 272.757C56.6386 273.093 56.5576 272.121 56.9362 266.741C57.6511 256.592 60.5097 249.017 66.6198 241.08C69.579 237.235 69.633 237.204 73.1079 237.218C75.0357 237.225 81.7763 237.676 88.0875 238.22ZM148.03 240.924C154.184 248.755 158.197 260.044 157.814 268.441L157.613 272.84L136.688 264.39C125.179 259.743 115.383 255.632 114.919 255.254C113.837 254.372 113.728 240.194 114.797 239.534C115.55 239.07 134.492 237.469 141.234 237.301L145.105 237.204L148.03 240.924ZM80.1002 286.189C79.8525 286.436 79.65 299.232 79.65 314.625C79.65 346.927 79.8228 348.25 84.7476 353.721C91.1122 360.79 104.351 363.838 115.789 360.869C121.882 359.287 131.098 355.228 132.806 353.374L134.325 351.726V319.799C134.325 302.239 134.141 287.392 133.915 286.806C133.587 285.95 132.384 285.739 127.84 285.739H122.175V315.107C122.175 333.713 121.924 344.944 121.489 345.756C120.398 347.79 112.65 349.869 106.167 349.867C98.2422 349.864 94.3468 347.733 92.5688 342.432C92.0444 340.87 91.8 331.489 91.8 312.94V285.739H86.1752C83.081 285.739 80.3473 285.942 80.1002 286.189ZM203.69 346.79C198.537 349.582 198.621 358.202 203.828 360.891C209.501 363.82 216 360.047 216 353.824C216 347.591 209.288 343.756 203.69 346.79Z" fill="white"/>
</g>
<defs>
<clipPath id="clip0_6057_303">
<rect width="216" height="362" fill="white"/>
</clipPath>
</defs>
</svg>
